<?xml version="1.0" encoding="utf-8"?>
<!-- Generator: Adobe Illustrator 20.1.0, SVG Export Plug-In . SVG Version: 6.00 Build 0)  -->
<svg version="1.1" id="Layer_1" xmlns="http://www.w3.org/2000/svg" xmlns:xlink="http://www.w3.org/1999/xlink" x="0px" y="0px"
	 viewBox="0 0 50 15.2" style="enable-background:new 0 0 50 15.2;" xml:space="preserve">
<style type="text/css">
	.st0{fill:#F48130;}
	.st1{fill:#333332;}
</style>
<g>
	<path class="st0" d="M9,10.9c0,3.1-1.8,3.2-4.5,3.2C0.8,14.1,0,12.9,0,9.2c0-3.5,0.6-5,4.5-5c4,0,4.5,1.2,4.5,5.4H2.3
		c0,2.1,0.1,2.8,2.1,2.8c1.3,0,2.2,0,2.2-1.4H9z M6.7,8.1c0-2-0.3-2.1-2.2-2.1c-2,0-2.1,0.4-2.1,2.1H6.7z"/>
	<path class="st1" d="M18.3,4.8V4c0-1.6-0.6-1.7-3-1.7c-2.7,0-3.1,0.4-3.1,3.2v3.1c0,2.8,0.4,3.3,3.1,3.3c2.1,0,3.1-0.1,3.1-2.1V9
		h2.7v0.9c0.1,4.2-2.3,4-5.8,4.2c-4.9,0.2-5.8-1.4-5.8-5.5V5.4C9.5,1,11.3,0,15.4,0c3.5,0,5.4,0,5.6,4v0.8H18.3z"/>
	<path class="st1" d="M28.3,12.8L28.3,12.8c-0.5,1.3-1.9,1.3-3.1,1.3c-2.2,0-3.6-0.5-3.6-3.1c0-2.3,1.2-3,3.6-3c1.2,0,2.4,0,2.9,1.1
		h0.1V7.9c0-1.6-0.1-2.1-2.1-2.1c-1,0-1.8,0.1-1.8,1.4H22c0-2.8,1.9-2.9,4.2-2.9c3.1,0,4.4,0.5,4.4,3.7V14h-2.3L28.3,12.8z M23.9,11
		c0,1.4,0.6,1.5,2.1,1.5c1.2,0,2.1-0.1,2.1-1.5c0-1.4-1-1.4-2.1-1.4C24.9,9.6,23.9,9.6,23.9,11z"/>
	<path class="st1" d="M36.3,7.8c2.5,0.1,4.1,0.2,4.1,3c0,2.6-1.3,3.3-4.1,3.3v1.1h-1.1v-1.1c-3.5,0-4-1.3-4-3.2v-0.4H33v0.4
		c0,1.4,0.6,1.5,2.3,1.5v-3c-2.6-0.2-4-0.4-4-3c0-2.8,1.4-3.1,4-3.1v-1h1.1v1c2.2,0.1,3.7,0.1,3.7,2.8v0.4h-1.8V6.1
		c-0.1-1-0.5-1.1-2-1.1V7.8z M35.2,5c-1.5,0-2.1,0-2.1,1.5c0,1.3,0.8,1.3,2.1,1.3V5z M36.3,12.4c1.8,0,2.2-0.3,2.2-1.6
		c0-1.3-0.8-1.3-2.2-1.3V12.4z"/>
	<path class="st1" d="M43.6,5.7L43.6,5.7c0.6-1.4,1.8-1.6,3.1-1.6c2.6,0,3.3,1.1,3.3,3.4V14h-2.3V7.8c0-1.4-0.3-1.9-1.8-1.9
		c-2,0-2.3,1-2.3,2.7V14h-2.3V0.1h2.3V5.7z"/>
</g>
</svg>
