<svg xmlns="http://www.w3.org/2000/svg" viewBox="0 0 100 101"><g fill="none"><path fill="#DBE0E4" d="M92.167 63.905h-42C47 63.905 44.5 61.41 44.5 58.25V8.013c0-3.16 2.5-5.656 5.667-5.656h42c3.166 0 5.666 2.496 5.666 5.656V58.25c0 3.16-2.5 5.655-5.666 5.655"/><path fill="#FFF" d="M92.167 98.837h-42c-3.167 0-5.667-2.495-5.667-5.656V42.95c0-3.16 2.5-5.656 5.667-5.656h42c3.166 0 5.666 2.496 5.666 5.657v50.23c0 3.166-2.5 5.66-5.666 5.66"/><path fill="#EFF0F0" d="M92.167 93.846h-42C47 93.846 44.5 91.35 44.5 88.19V13.005c0-3.16 2.5-5.655 5.667-5.655h42c3.166 0 5.666 2.494 5.666 5.654V88.19c0 3.16-2.5 5.656-5.666 5.656"/><path fill="#F0F0F0" d="M76.167 88.856c0 2.828-2.167 4.99-5 4.99-2.834 0-5-2.162-5-4.99 0-2.828 2.166-4.99 5-4.99 2.833 0 5 2.162 5 4.99"/><path fill="#C4C7CA" d="M99.5 8.014V93.18c0 3.993-3.333 7.32-7.333 7.32h-42c-4 0-7.334-3.327-7.334-7.32V8.015c0-3.992 3.334-7.32 7.334-7.32h42c4 0 7.333 3.328 7.333 7.32zM46.167 93.18c0 2.163 1.833 3.993 4 3.993h42c2.166 0 4-1.83 4-3.992V8.02c0-2.163-1.834-3.992-4-3.992h-42c-2.167 0-4 1.83-4 3.992v85.16z"/><path fill="#C4C7CA" d="M77.833 88.856c0 3.66-3 6.654-6.666 6.654-3.667 0-6.667-2.994-6.667-6.654 0-3.66 3-6.653 6.667-6.653 3.666 0 6.666 2.993 6.666 6.653zm-10 0c0 1.83 1.5 3.327 3.334 3.327 1.833 0 3.333-1.497 3.333-3.327 0-1.83-1.5-3.327-3.333-3.327-1.834 0-3.334 1.49-3.334 3.32zm31.667-9.98c0 .998-.667 1.663-1.667 1.663H44.5c-1 0-1.667-.67-1.667-1.67s.667-1.66 1.667-1.66h53.333c1 0 1.667.666 1.667 1.664zm0-66.536c0 .997-.667 1.662-1.667 1.662H44.5c-1 0-1.667-.665-1.667-1.663 0-1 .667-1.67 1.667-1.67h53.333c1 0 1.667.665 1.667 1.663zM72.833 7.35c0 .997-.666 1.662-1.666 1.662H64.5c-1 0-1.667-.665-1.667-1.663 0-1 .667-1.67 1.667-1.67h6.667c1 0 1.666.664 1.666 1.663zm6.667 0c0 .997-.667 1.662-1.667 1.662h-1.666c-1 0-1.667-.665-1.667-1.663 0-1 .667-1.67 1.667-1.67h1.666c1 0 1.667.664 1.667 1.663z"/><path fill="#DBE0E4" d="M63.405 93.667v-42C63.405 48.5 60.91 46 57.75 46H7.513c-3.16 0-5.656 2.5-5.656 5.667v42c0 3.166 2.496 5.666 5.656 5.666H57.75c3.16 0 5.655-2.5 5.655-5.666"/><path fill="#FFF" d="M98.337 93.667v-42C98.337 48.5 95.842 46 92.68 46H42.447c-3.16 0-5.656 2.5-5.656 5.667v42c0 3.166 2.5 5.666 5.66 5.666h50.23c3.165 0 5.66-2.5 5.66-5.666"/><path fill="#EFF0F0" d="M93.346 93.667v-42C93.346 48.5 90.85 46 87.69 46H12.505c-3.16 0-5.655 2.5-5.655 5.667v42c0 3.166 2.494 5.666 5.654 5.666H87.69c3.16 0 5.656-2.5 5.656-5.666"/><path fill="#F0F0F0" d="M88.356 77.667c2.828 0 4.99-2.167 4.99-5 0-2.834-2.162-5-4.99-5-2.828 0-4.99 2.166-4.99 5 0 2.833 2.162 5 4.99 5"/><path fill="#C4C7CA" d="M7.514 101H92.68c3.993 0 7.32-3.333 7.32-7.333v-42c0-4-3.327-7.334-7.32-7.334H7.515c-3.992 0-7.32 3.334-7.32 7.334v42c0 4 3.328 7.333 7.32 7.333zM92.68 47.667c2.163 0 3.993 1.833 3.993 4v42c0 2.166-1.83 4-3.992 4H7.52c-2.163 0-3.992-1.834-3.992-4v-42c0-2.167 1.83-4 3.992-4h85.16z"/><path fill="#C4C7CA" d="M88.356 79.333c3.66 0 6.654-3 6.654-6.666C95.01 69 92.016 66 88.356 66c-3.66 0-6.653 3-6.653 6.667 0 3.666 2.993 6.666 6.653 6.666zm0-10c1.83 0 3.327 1.5 3.327 3.334 0 1.833-1.497 3.333-3.327 3.333-1.83 0-3.327-1.5-3.327-3.333 0-1.834 1.49-3.334 3.32-3.334zM78.376 101c.998 0 1.663-.667 1.663-1.667V46c0-1-.67-1.667-1.67-1.667S76.71 45 76.71 46v53.333c0 1 .667 1.667 1.665 1.667zm-66.536 0c.997 0 1.662-.667 1.662-1.667V46c0-1-.665-1.667-1.663-1.667-1 0-1.67.667-1.67 1.667v53.333c0 1 .665 1.667 1.663 1.667zM6.85 74.333c.997 0 1.662-.666 1.662-1.666V66c0-1-.665-1.667-1.663-1.667-1 0-1.67.667-1.67 1.667v6.667c0 1 .664 1.666 1.663 1.666zm0 6.667c.997 0 1.662-.667 1.662-1.667v-1.666c0-1-.665-1.667-1.663-1.667-1 0-1.67.667-1.67 1.667v1.666c0 1 .664 1.667 1.663 1.667z"/><g fill="#F8DDDD"><path d="M8.317 39.333c-.998 0-1.663-.666-1.663-1.666 0-12 9.648-21.667 21.624-21.667.998 0 1.664.667 1.664 1.667s-.666 1.666-1.664 1.666C18.13 19.333 9.98 27.5 9.98 37.667c0 1-.665 1.666-1.663 1.666zm18.298-10c-.5 0-.832-.166-1.165-.5-.665-.666-.665-1.666 0-2.333l9.98-10c.666-.667 1.664-.667 2.33 0 .665.667.665 1.667 0 2.333l-9.98 10c-.334.334-.666.5-1.165.5z"/><path d="M36.595 19.333c-.5 0-.832-.166-1.164-.5l-9.98-10c-.66-.666-.66-1.666 0-2.333.67-.667 1.67-.667 2.33 0l9.98 10c.67.667.67 1.667 0 2.333-.33.334-.66.5-1.16.5z"/><path d="M36.595 19.333h-8.317c-.998 0-1.663-.666-1.663-1.666 0-1 .665-1.667 1.663-1.667h8.317c.998 0 1.663.667 1.663 1.667s-.665 1.666-1.663 1.666z"/></g><path fill="#F34F4F" d="M6.654 37.667C5.656 37.667 4.99 37 4.99 36c0-12 9.648-21.667 21.625-21.667.998 0 1.663.667 1.663 1.667s-.665 1.667-1.663 1.667C16.468 17.667 8.317 25.833 8.317 36c0 1-.665 1.667-1.663 1.667zm18.296-10c-.498 0-.83-.167-1.163-.5-.665-.667-.665-1.667 0-2.334l9.98-10c.666-.666 1.664-.666 2.33 0 .665.667.665 1.667 0 2.334l-9.98 10c-.334.333-.667.5-1.166.5z"/><path fill="#F34F4F" d="M34.932 17.667c-.5 0-.832-.167-1.165-.5l-9.98-10c-.665-.667-.665-1.667 0-2.334s1.663-.666 2.33 0l9.98 10c.665.667.665 1.667 0 2.334-.333.333-.666.5-1.165.5z"/><path fill="#F34F4F" d="M34.932 17.667h-8.317c-.998 0-1.664-.667-1.664-1.667s.67-1.667 1.67-1.667h8.318c.998 0 1.663.667 1.663 1.667s-.665 1.667-1.663 1.667z"/></g></svg>